<?xml version="1.0" encoding="UTF-8"?>
<svg id="Layer_2" data-name="Layer 2" xmlns="http://www.w3.org/2000/svg" viewBox="0 0 1080 1080">
  <defs>
    <style>
      .cls-1 {
        fill: #071525;
      }

      .cls-1, .cls-2, .cls-3, .cls-4, .cls-5, .cls-6, .cls-7, .cls-8, .cls-9, .cls-10, .cls-11, .cls-12 {
        fill-rule: evenodd;
      }

      .cls-2 {
        fill: #071320;
      }

      .cls-3 {
        fill: #031828;
      }

      .cls-4 {
        fill: #e85025;
      }

      .cls-5 {
        fill: #e84e25;
      }

      .cls-6 {
        fill: #061826;
      }

      .cls-7 {
        fill: #fafafc;
      }

      .cls-8 {
        fill: #e65225;
      }

      .cls-13 {
        fill: none;
      }

      .cls-9 {
        fill: #08101c;
      }

      .cls-10 {
        fill: #021929;
      }

      .cls-11 {
        fill: #e85325;
      }

      .cls-12 {
        fill: #091421;
      }
    </style>
  </defs>
  <g id="Layer_1-2" data-name="Layer 1">
    <g>
      <path class="cls-3" d="m381.98,717.69l-11.71-.12,18.34-47.79,11.49.02c2.12,3.4,14.87,39.92,18.12,47.79l-12.25.04c-.35-1.51-.75-3.2-1.24-4.72-.77-2.39-.79-2.64-2.03-4.43l-17.34-.05-3.38,9.26h0Zm265.38-.06l-11.84.06,18.43-48.03,12.17.1c2.66,8.38,5.99,16.03,8.84,24.19,2.24,6.39,6.21,18.12,9.03,23.48l-11.69.21-3.52-9.12-17.89-.24c-1.33,2.07-2.82,6.41-3.53,9.35h0Zm-223.74-47.95c-.05,22.67-6.03,49.16,20.71,48.69,10.84-.19,17.75-6.06,19.31-15.23,1.44-8.49.43-24.05.5-33.35l-11.6-.13c.37,8.13.28,16.28.33,24.42.05,7.83-.71,14.98-9.46,14.84-8.61-.14-8.74-7.76-8.7-15.72.04-7.73-.21-15.82.17-23.44l-11.27-.08h0Zm142.2,28.72c-6.25,31.35-56.24,24.55-49.92-9.99,5.62-30.72,56.59-23.46,49.92,9.99h0Zm154.83-.33c2.72,7.27,9.06,12.88,12.16,19.62l-13.14-.12c-1.37-3.36-7.79-14.02-10.09-16.73l-7.06-.21.07,17.13-11.14-.13.04-48.03c11.12.55,26.34-2.21,33.84,4.41,8.07,7.13,5.83,21.02-4.67,24.07h0Zm-403.77,42.74c-11.19-6.93-39.35-44.59-42.48-58.01h-12.14c.95,11.41,19.34,35.17,27.37,45.45,4.59,5.87,15.32,16.54,20.96,21.51l16.43,13.05c16.54,12.46,48.41,29.49,69.18,39.19,2.03.95,3.09,1.34,4.77,2.16,6.38,3.13,12.94,5.97,19.81,8.8l100.7,43.21c3.7,1.66,6.35,2.76,10.1,4.64,12.69,6.36,8.3,5.64,18.78,0l29.56-13.79c16.2-6.69,57.56-23.53,71.3-30.13,3.32-1.59,6.36-2.79,9.7-4.17l39.13-18.08c34.03-17.02,42-23.34,70.22-45.08,14.72-11.34,46.25-49.61,47.68-66.75h-11.27c-3.36,14.43-28.24,47.08-40.73,56.39l-3.48,2.18c-36.23,1.34-75.27,0-111.83,0l-223.66-.03c-14.81.02-103.27,1.03-110.1-.54h0Zm13.16-48.45l8.38,8.15,3.74-7.99,9.22-.07c-1.67,4.91-4.85,10.33-7.26,13.45,3.87,6.26,6.81,6.42,11.44,11.38-10.68,1.46-11.86.7-15.89-2.68-.14-.11-.34-.29-.47-.4l-1.01-.74c-.1-.08-.35-.24-.52-.36-7.03,5.05-19.04,8.6-27.38,1.37-8.93-7.75-2.3-20.08,5.74-23.5-2.09-3.68-6.27-9.86-2.84-16.17,5.59-10.27,26.25-9.11,26.33,4.55.02,3.38-1.71,6.5-3.15,8.24-1.78,2.16-3.97,2.77-6.35,4.77h0Zm141.84-22.7l.45,10.07,14.1-.18-.19,38.02,11.69.02.03-37.96,13.69.07.17-9.89-39.94-.14h0Zm157.04,34.56l-.28,10.35c-35.83,17.15-56-27.81-28.37-42.28,7.99-4.18,20.71-5.36,28.39.09l.28,10.73c-16.9-8.82-30.29-3.05-29.89,10.95.21,7.44,4.63,12.54,10.64,14.14,8.42,2.24,13.54-1.36,19.23-3.99h0Zm144.93-24.9l-21.06-.09.02,9.73,19.04.02-.2,8.74-18.46.17-.44,10.66,21.42-.19.34,9.25-33.08.03.17-47.89,32.46.1-.2,9.49h0Zm-196.53-101.42l18.22-.18-.24,75.37-17.82-.24-.16-74.94h0Zm-132.06,46.81c6.65-25.4-10.98-43.9-30.9-47.97-25.16-5.14-46.48,9.15-50.89,28.57-12.19,53.71,69.21,67.47,81.79,19.39h0Zm189.42-8.67l.02,36.84-17.82.08c-1.04-20.32.02-52.64-.25-75.34l19.26.17c6,6.78,12.34,15.83,17.81,23.01,3.11,4.07,5.87,7.69,8.53,11.43,2.93,4.12,5.73,8.31,9.19,11.57l-.05-46.22,18.82.19-.23,75.31-17.67-.21c-3.79-5.16-35.69-47.81-37.92-48.88l.3,12.05h0Zm-343.35-38.03l65.4-.24-.08,15.63-23.03.04.09,59.66-18.28-.15-.2-59.65-23.93.03.03-15.33h0Zm471.86,58.71l.28-12.95-16.1-.07-.13-13.28h32.27s.16,34.97.16,34.97c-27.76,18.93-71.94,7.61-73.63-27.57-1.78-37.06,39.53-52.47,71.02-34.82l-.04,16.39c-16.09-9.17-43.47-13.82-50.85,7.24-3.89,11.1.41,23.29,7.27,28.09,9.6,6.74,18.15,4.84,29.77,2h0Zm-221.78,16.26l-17.78-.11c-3.5-9.19-13.69-44.21-16.22-48.72l-15.54,48.88-19.09-.17-21.85-75.2,20.26.12,12.06,49.52c1.42-1.64,6.97-21.09,7.99-24.19,2.5-7.6,5.83-17.72,7.38-25.46l18.42.09c.67,3.15,14.46,48.62,14.84,49.22l12.23-49.3,19.46.13c-4.83,13.42-18.26,68.79-22.15,75.18h0Zm95.9-110.95c5.34.15,11.48-.71,15.24,1.86,9.59,6.55,13.3,7.64,24.4,2.27,4.05-1.96,10.26-2.69,15.3-2.32,1.63,1.83,5.32,8.28,6.23,10.75l-67.32.02,6.15-12.57h0Zm-106.32-2.33l47.98.1,7.15,14.71-61.22.12c2.06-3.92,5.57-8.32,6.09-14.94h0Zm-118.75,5.24l44.86.09,5.12,9.56-77.38-.12c9.95-10.68-3.38-9.56,27.4-9.53h0Zm-153.31-4.27l59.81-1.19c2.06,5.29,5.3,10.26,7.88,15.09l-67.02.03-.67-13.93h0Zm229.82-1.78c-3.27-31.36,23.25-34.45,26.33-11.07,4.01,30.39-23.96,33.84-26.33,11.07h0Zm257.66-2.6c-3.12,27.2-27.34,21.33-24.39-5.94,2.74-25.36,27.39-20.22,24.39,5.94h0Zm-283.2-31.8c1.81,34.12-17.1,27.27-63.97,27.04-14.59-.07-79.09,1.55-86.85-4.6-3.75-2.97-5.37-11.28-3.62-17.77,1.52-5.62,8.49-3.99,18.72-3.76,30.02.68,60.02-.13,90.06-.81,13.19-.3,33.84,1.27,45.66-.1h0Zm14.62,21.54c1.6-2.17,2.01-5.41,2.96-7.89,1.01-2.65,2.55-4.92,3.8-6.58,2.78-3.7,6.2-6.82,12.01-8.01,6.45-1.32,12.67.72,16.36,3.96,5.07,4.45,4.4,8.54,7.56,12.5-.82-13.26-8.97-27.95-24.68-23.17-8.18,2.49-19.74,18.77-18,29.19h0Zm233.54,3.36c.43-13.63,6.22-29.23,19.01-30.7,20.64-2.38,23.35,24.04,24.29,25.65,2.94-6.63-3.73-30.27-22.53-30.69-20.24-.45-21.83,22.9-25.15,29.51-12.68.79-41.07.11-56.36.04-7.19-.03-10.72-.25-13.29,5.39,24.6-.61,49.79-.03,74.03.81h0Zm-273.82-41.13l-29.12.16c.28-6.92.68-18.22,5.58-21.43,4.21-2.76,18.46-2.8,23.85-1.98,6.47-.21,14.93-1.13,17.2,4.21,2.27,5.34.58,14.09-1.07,18.52l-16.44.52h0Zm-41.05,10.72c-22.25,2.38-53.77,1.04-76.94.79,1.13-12.58.41-29.08,3.46-40.62,2.07-7.84,4.94-8.43,13.81-8.86l43.34-.72c21.24-.29,18.46.36,16.34,49.41h0Zm76.22-9.91c7.45-4.45,11.08-9.81,22.76-11.7,10.2-1.65,18.6.97,25.65,5.5,14.42,9.25,18.34,23.53,20.05,45.91.82-.94.56-.37,1.25-1.87l.91-6.17c.65-17.43-5.9-33.84-20.77-42.75-21.01-12.58-45.82-2.83-49.84,11.09h0Zm121.16-23c1.34-.96-.65-.87,2.97-1.28l10.35,1.28c-.77,3.61-1.18,2.86-5.53,2.17-4-.63-5.51-.31-7.79-2.17h0Zm33.99-13l31.24,2.03c5.36,1.16,6.39,5.56,8.33,8.9,2.35,4.04,4.38,7.59,6.71,11.48,16.92,1.22,34.01,2.71,50.98,3.74,9.12.56,43.42,2.92,49.72,4.84l-.74,3.32c-6.92-1.95-69.79-5.71-83.27-7.08-20.68-2.1-15.61,2.86-23.48-10.12-1.57-2.58-2.51-4.37-4.24-7.02-4.75-7.23-11.07-5.87-26.45-7.4-12.11-1.2-6.76-.15-8.8-2.7h0Zm-289.67-9.82c9.02-1.5,32.02-2.36,41.96-2.2,15.31.24,24.84,3.93,25.13,19.75,3.3-2.29,6.73-5.55,11.66-8.13,20.97-10.99,61.72-11.05,85.44-10.76,11.4.14,25.77,2.02,36.61,1.46-10.56-4.99-84.13-8.21-100.76-8.59-16.96-.39-87.44,1.78-100.03,8.47h0Zm312.24.29c5.88-3.71,71.12-18.78,89.12-23.81.58-.16,2.21-.68,2.65-.75l2.7.28c-1.16,3.44-15.93,5.93-21.74,7.48-7.94,2.12-15.96,4.19-23.95,6.38-2.89.79-42.07,11.53-45.14,11.44-2.44-.07.58.27-1.57-.18-1.89-.39-1.21-.26-2.08-.84h0Zm97.92-26.11c1.05,1.46,2.33,4.53,2.49,6.73-4.86,3.31-30.56,12.99-40.32,17.7-6.52,3.15-35.33,15.12-37.02,19.25,3.35,2.88,14.94-4.29,20.71-6.86l63.78-27.15-.29,27.31c.57,3.3,1.83,3.45,1.62,6.9-2.33,2.41-5.2,2.3-5.26,4.72-.09,3.67,4.86,3.23,7.04,2.29,7.99-3.44,1.02-13.16,1.02-13.16-1.2-3.35-.54-34.1-.6-40.56l-13.17,2.85h0Zm-132.19-19.86l4.9-1.79c5.73,8.05,21.25,39.92,24.27,49.63-5.82-.36-6.15-4.14-10.23-12.34-2.5-5.03-6.26-10.93-7.81-15.91-1.47,3.18,1.95,22.05-.08,26.62-1.47-1.15-1.67-1.79-2.18-5.02-3.88-24.55-1.86-14.78-8.87-41.19h0Zm-74.85,40.84c2.26-6.51,25.04-35.71,29.47-43.4,7.25-.33,32.73.11,38.23,2.55,4.38,6.22,9.87,49.66,10.89,60.51.58,6.17,2.11,62.73-3.08,67.55-2.31-2.96.13-13.96.08-18.77l-66.38-1.49-1.63-6.42,67.78,1.58c1.06-14.75.24-32.39-.89-47.23-14.7-1.04-38.89-4.39-53.59-4.42-3.63,0-5.81.4-7.78-1.27,18.2-3.29,42.34-.87,60.72,1.1-.62-7.96-4.82-46.42-10.39-48.47-.98-.36-1.66-.49-2.76-.62l-19.84-1.29c-12.87-.96-9.04-.32-16.68,10.32l-16.45,23.41c-2.82,3.93-2.6,6.21-7.68,6.36h0Zm-10.23-2.69c1.85-5.63,22.44-31.36,24.98-37.4-12.62,0-24.89,1.13-37.33,1.65-21.78.91-16.24.76-29.54,10.44-9.48,6.9-15.32,13.54-21.51,18.33-6,4.63-27.73.79-37.36,1.22l22.97-18.98c10.51-8.55,14.12-8.86,30.92-10.59,12.71-1.31,25.04-2.74,37.91-3.84,9.69-.82,32.5-.22,39.73-1.96-.41,3.02-11.58,18.16-14.05,21.61l-11.02,15.84c-1.97,3.01-1.45,3.45-5.7,3.68h0Zm-54.8-47.16c11.17-4.52,61.33-8.37,77.37-9.94,5.83-.57,67.59-6.37,72.1-3.87,1.35.75,1.95,1.6,2.45,2.95l-.05,3.93-151.96,11.93.09-4.99h0Zm251.41-115.3c48.86-7.78,76.15,41.96,49.05,75.32-24.94,30.7-83.64,21.6-90.38-20.49-4.94-30.83,15.58-50.73,41.34-54.83h0Zm-130.63,1.14c9.98-1.03,27.42-.3,37.95,0,11.73.32,22.64,2.13,29.88,8.37,6.07,5.23,11.82,15.07,9.17,27.34-3.06,14.15-11.51,16.23-16.47,19.91l23.04,34.54-25.19.06c-2.9-6.5-9.02-14.33-13.23-20.99-9.27-14.66-4.88-8.66-23.96-10.14l.07,31.11-21.1-.04-.16-90.14h0Zm-292.51.14l21.85.02,21.06,35.18c2.15,3.56,5.19,8.14,6.57,11.72.17-.15.37-.39.47-.5.1-.12.34-.37.45-.51l13.22-22.43c4.39-7.97,10.13-15.72,13.58-23.47l22.86-.33.11,90.39-20.15.04v-57.3c-2.31,1.85-2.06,2.39-3.93,5.8l-10.29,17.52c-3.77,6.25-11,21.03-15.38,21.4-5.34.46-6.71-5.36-9.24-9.32l-13.98-22.39c-1.21-1.95-2.41-3.85-3.64-5.89l-3.42-5.05c-.1-.38-.37-.4-.46-.58l.11,55.72-19.68.09-.11-90.09h0Zm198.26-.61l80.87.12.07,18.5-30.31-.15.05,72.16-20.99.1.23-72.14-29.94-.28.02-18.31h0Zm-77.39-.03l64.64.02.03,18.52-44.43-.12.17,18.14,39.23-.05-.04,16.88-39.39-.07-.13,20.37,45.38.09.08,16.9-65.65.04.11-90.72h0Zm396.49,245.07l-.19,13.29-12.31.31-.21,21.96-57.9.07c2.4-5.43,2.5-8.65,4.57-14.43l30.68-.11c1.9-3.41,1.9-11.38,2.57-15.8l-5.74-2.06,1.14-30.64c6.54-1.25,18.97,2.09,26.45,2,0-5.98.89-8.06.9-13.57,0-4.86-.2-9.97-.06-14.8.14-4.84.92-7.83.9-13.84l3.44-116.19c-.02-6.04.93-8.42.9-14.71-.03-4.92,0-9.84-.02-14.75-.03-6.35.89-9.04.9-14.7,0-4.92-.01-9.86-.04-14.78-.04-6.27.88-8.64.88-14.73-22.79-5.31-39.59-9.73-63.5-14.52-22.38-4.49-44.33-7.67-67.91-10.98-58.68-8.24-103.32-9.9-165.94-10.04-13.21-.03-33.06,1.94-45.94,2.6-3.66.19-6.37-.19-10.04.36-5.58.84-12.04.97-17.63,1.44-49.64,4.17-105.1,13.32-153.31,23.54l-32.28,7.59c0,13.45.9,23.78.85,37.3l.85,27.75c.06,4.67.8,5.11.93,9.47.19,6.28-.14,12.82-.06,19.13.07,5.33.9,7.78.9,18.17,0,13.63.87,24.23.87,37.97,4.8.68,9.87,2.37,15,3.32,11.01,2.04,39.75,5.35,46.47,7.83l-43.61,2.36,14.3,2.13c24.15,3.08,35.18,4.56,60.97,5.39-.73.44-.06.27-1.97.92-3.92,1.33-11.27,1.39-19.27,4.21-4.21,1.48-14.42,6.75-17.26,9.58-5.35,5.33-5.4,11.41-7.73,19.12-3.19,10.6-3.75,12.07-2.47,24.29-11.87.78-11.77,3.4-11.92,15.55-.1,8.36-.87,17.91,0,26.12l-29.06.27-45.95-.42,4.83,57.6c7.38,53.12,6.71,87.63,36.43,132.61,1.79,2.71,2.46,3.58,4.42,5.98l14.39,17.69c2.55,3.05,7.79,8.22,10.8,10.87,2.3,2.02,3.29,2.46,5.62,4.78,2.22,2.21,3.35,2.73,5.63,4.77,5.83,5.19,12.08,9.18,18.3,13.77,18.52,13.66,40.32,23.34,60.81,33.68,37.63,19,83.86,34.7,118.46,51.45l28.64,13.84c6.58,3.6,6.62,5.11,12.32,2.29l59.79-27.82c4.76-1.95,9.36-4.12,14.6-6.2l87.81-38.76c2.32-1.16,4.62-2.31,6.94-3.46,2.82-1.4,4.4-2.54,7.21-4.06,20.85-11.19,46.45-26.43,62.77-42.99,7.05-7.15,13.25-11.67,20.54-21.07,28.32-36.49,35.62-60.11,42.47-106.63l8.97-96.5-19.75-1.83,6.03-172.55c.05-4.47.7-4.77.91-8.63.32-5.99-.53-13.11.12-18.95,1.64-14.62.78-30.82,1.6-46.08.21-3.86.85-4.16.91-8.63.16-13.29.83-23.97.83-37.31-4.1-.09-28.46-7.18-34.49-8.85-47.65-13.19-98.1-20.94-147.63-26.62l-40.54-3.67c-60.16-6.37-126.91-2.74-187.32,1.93l-58.53,7.36c-45.52,7.35-91.47,15.15-135.62,28.22-2.37.7-6.66,1.48-8.77,2.5l3.47,70.21c.66,12.3.67,23.08.83,35.58l2.51,52.97c.61,5.45-.07,12.45.1,18.11l1.79,35.49c.18,5.94-.35,12.36-.03,18.24l1.75,34.66c-.04,7.21.36,12.31.86,18.22h14.74l-.99-33.68c-1.35-12.03-2.48-55.87-2.47-66.88,0-6.65-.74-11.11-.89-16.44-.18-6,.24-12.26.06-18.26l-1.77-32.91c-.3-5.48.04-11.8.03-17.37-.02-13.29-1.8-35.21-1.76-51.12.02-10.73-.89-23.64-1.73-33.81,12.06-5.79,85.31-19.59,100.48-22.62,57.25-11.41,129.43-16.4,189.93-16.4,89.65,0,171.81,8.86,256.08,29.99l24.9,6.31c2.83.85,5.13,1.76,8.57,1.84,0,22.94-1.74,44.22-1.73,66.75,0,11.52-.82,20.84-.84,32.97,0,5.86-.91,9.63-.9,16.44.02,6.49-.15,11.34-.74,16.6l-.98,50.17c.04,6.61-.92,9.63-.88,16.45l-2.07,66.76Z"/>
      <path class="cls-5" d="m527.29,795.86h-.24l-.03.12.27-.12h0Zm-.67-34.62l3.64,11.28,11.85-.02-9.6,6.95,3.68,11.27-9.58-6.99-9.58,6.99,3.68-11.27-9.6-6.95,11.85.02,3.64-11.28h0Zm-83.48,1.98v-6.45h-25.65v33.3h25.65v-6.45h-18.47v-7.32h16.73v-6.45h-16.73v-6.64h18.47Zm15.02,27.44c8.14,0,12.94-4.22,12.94-10.57s-4.75-8.29-11.93-9.89c-5.14-1.16-7.13-1.94-7.13-4.36,0-1.99,1.84-3.59,4.9-3.59s6.54,1.31,9.5,3.68l3.73-5.14c-3.39-2.91-7.61-4.61-13.04-4.61-7.27,0-12.31,4.22-12.31,10.37s4.99,8.43,12.02,10.03c5.09,1.16,7.03,1.89,7.03,4.27,0,2.08-1.84,3.73-5.43,3.73-4.22,0-7.8-1.65-10.96-4.36l-4.12,4.9c3.88,3.59,9.02,5.53,14.79,5.53h0Zm23.7-.58h7.17v-26.86h10.37v-6.45h-27.92v6.45h10.37v26.86h0Zm23.16.58c2.38,0,4.32-2.04,4.32-4.51,0-2.28-1.94-4.31-4.32-4.31-2.52,0-4.51,2.04-4.51,4.31,0,2.47,1.99,4.51,4.51,4.51h0Zm46.63-.58h25.16v-6.45h-14.11l6.06-4.7c5.82-4.22,7.76-7.66,7.76-12.12,0-6.25-5.14-10.62-12.22-10.62-5.38,0-9.6,2.33-12.9,6.5l4.56,4.41c2.42-2.76,4.9-4.41,8.14-4.41,2.72,0,5.04,1.65,5.04,4.41,0,2.33-1.26,4.51-5.24,7.66l-12.26,9.5v5.82h0Zm41.59.58c8.77,0,14.98-7.13,14.98-17.26s-6.21-17.21-14.98-17.21-14.93,7.13-14.93,17.21,6.16,17.26,14.93,17.26h0Zm0-6.5c-4.46,0-7.61-4.51-7.61-10.76s3.15-10.71,7.61-10.71,7.61,4.46,7.61,10.71-3.1,10.76-7.61,10.76h0Zm16.23,5.91h25.16v-6.45h-14.11l6.06-4.7c5.82-4.22,7.76-7.66,7.76-12.12,0-6.25-5.14-10.62-12.22-10.62-5.38,0-9.6,2.33-12.9,6.5l4.56,4.41c2.42-2.76,4.9-4.41,8.14-4.41,2.72,0,5.04,1.65,5.04,4.41,0,2.33-1.26,4.51-5.24,7.66l-12.26,9.5v5.82h0Zm39.11.63c7.95,0,13.23-4.51,13.23-11.59s-5.09-10.57-11-10.57c-2.71,0-4.85.87-6.5,2.04l.19-7.37h15.46v-6.45h-22.06l-.48,17.99,4.8,1.94c1.79-1.36,3.93-2.18,6.45-2.18,3.64,0,6.01,1.94,6.01,4.85s-2.33,5.09-6.06,5.09c-3.2,0-6.25-1.55-8.73-3.93l-4.22,5.04c3.1,3.1,7.32,5.14,12.9,5.14h0Zm113.86-49.34c-1.62,3.1-3.17,3.58-5.87,5.77-2.08,1.69-3.61,2.95-5.77,4.64-4.24,3.31-7.59,5.67-12.12,8.69l-25.65,15.96c-12.68,6.54-25.69,13.25-38.86,19.43-5.92,2.78-11.88,5.45-17.85,7.95l-87.78,37.92c-5.03,2.54-24.65,12.61-29.21,11.4l-14.99-6.77c-5.01-2.34-9.48-3.96-14.45-6.35-4.85-2.33-9.63-4.46-14.45-6.36l-58.58-24.64c-5.02-2.09-9.74-4.57-14.36-6.45-5.08-2.07-9.98-4.3-14.89-6.78-2.76-1.39-4.43-1.86-7.24-3.16l-60.1-33.52c-4.59-3.04-20.88-14.64-23.4-18.28,6.83,1.56,95.29.55,110.1.54l223.66.03c36.56-.01,75.6,1.34,111.83,0Z"/>
      <path class="cls-4" d="m270.06,532.37l29.06-.27c-.88-8.21-.11-17.76,0-26.12.15-12.15.05-14.77,11.92-15.55-1.28-12.21-.72-13.69,2.47-24.29,2.32-7.71,2.38-13.79,7.73-19.12,2.84-2.83,13.05-8.09,17.26-9.58,8-2.82,15.35-2.88,19.27-4.21,1.9-.64,1.24-.47,1.97-.92-25.79-.83-36.82-2.31-60.97-5.39l-14.3-2.13,43.61-2.36c-6.72-2.48-35.46-5.79-46.47-7.83-5.13-.95-10.2-2.64-15-3.32,0,4.64.89,8.13.87,14.04-.02,5.2.02,10.41,0,15.61-.03,6.35.89,9.04.9,14.7,0,5.21-.01,10.43-.03,15.64-.02,6.3.84,9.43.9,14.7.06,5.17-.02,10.46-.04,15.64-.02,6.3.84,9.43.9,14.7.07,5.31-.03,10.72-.03,16.04Z"/>
      <path class="cls-10" d="m732.51,290.71c-36.81,3.78-32.42,63.68,9.38,57.7,35.07-5.01,31.34-61.88-9.38-57.7Z"/>
      <path class="cls-4" d="m821.93,518.96l-.57,13h-11.23s.87-38.41.87-38.41c-7.49.09-19.92-3.25-26.45-2l-1.14,30.64,5.74,2.06c-.66,4.41-.67,12.39-2.57,15.8l-30.68.11c-2.07,5.78-2.17,9-4.57,14.43l57.9-.07.21-21.96,12.31-.31.19-13.29Z"/>
      <path class="cls-3" d="m398.45,592.28c-11.17,2.5-20.2,14.26-16.72,29.01,2.7,11.47,13.27,20.47,28.01,17.45,27.76-5.68,22.06-53.91-11.29-46.46Z"/>
      <path class="cls-8" d="m541.32,438.4c5.09-.15,4.87-2.43,7.68-6.36l16.45-23.41c7.65-10.65,3.81-11.28,16.68-10.32l19.84,1.29c1.09.13,1.78.26,2.76.62,5.57,2.06,9.77,40.51,10.39,48.47-18.37-1.97-42.52-4.39-60.72-1.1,1.97,1.66,4.15,1.26,7.78,1.27,14.7.03,38.89,3.38,53.59,4.42,1.13,14.84,1.95,32.49.89,47.23l-67.78-1.58,1.63,6.42,66.38,1.49c.05,4.81-2.39,15.81-.08,18.77,5.2-4.81,3.66-61.38,3.08-67.55-1.02-10.85-6.51-54.29-10.89-60.51-5.5-2.44-30.98-2.88-38.23-2.55-4.42,7.7-27.21,36.89-29.47,43.4Z"/>
      <path class="cls-11" d="m338.2,443.25c9.02-1.5,32.02-2.36,41.96-2.2,15.31.24,24.84,3.93,25.13,19.75,3.3-2.29,6.73-5.55,11.66-8.13,20.97-10.99,61.72-11.05,85.44-10.76,11.4.14,25.77,2.02,36.61,1.46-10.56-4.99-84.13-8.21-100.76-8.59-16.96-.39-87.44,1.78-100.03,8.47Z"/>
      <path class="cls-11" d="m476.29,388.55l-.09,4.99,151.96-11.93.05-3.93c-.5-1.34-1.1-2.2-2.45-2.95-4.52-2.5-66.27,3.3-72.1,3.87-16.04,1.57-66.19,5.42-77.37,9.94Z"/>
      <path class="cls-4" d="m259.6,554.61l67.02-.03c-2.58-4.83-5.82-9.8-7.88-15.09l-59.81,1.19.67,13.93Z"/>
      <path class="cls-1" d="m315.3,523.13c13.91,1.75,30.75,1.94,44.91,1.95,41.66.05,32.25,2.79,34.43-11.2-7.38-1.21-32,.48-41.37.59-6.69.08-13.6.05-20.21-.32-3.3-.19-6.88-.3-10.13-.63-3.07-.31-6.26-1.18-8.99-.01-1.28,3.4-.24,6.49,1.36,9.62Z"/>
      <path class="cls-3" d="m618.34,317.62c14.56-.57,34.42,3.62,34.95-12.83.56-17.2-21.26-12.28-34.81-13.73l-.14,26.55Z"/>
      <path class="cls-4" d="m530.98,539.7c-.52,6.62-4.03,11.02-6.09,14.94l61.22-.12-7.15-14.71-47.98-.1Z"/>
      <path class="cls-8" d="m757.72,454.4c.57,3.3,1.83,3.45,1.62,6.9-2.33,2.41-5.2,2.3-5.26,4.72-.09,3.67,4.86,3.23,7.04,2.29,7.99-3.44,1.02-13.16,1.02-13.16-1.2-3.35-.54-34.1-.6-40.56l-13.17,2.85c1.05,1.46,2.33,4.53,2.49,6.73-4.86,3.31-30.56,12.99-40.32,17.7-6.52,3.15-35.33,15.12-37.02,19.25,3.35,2.88,14.94-4.29,20.71-6.86l63.78-27.15-.29,27.31Z"/>
      <path class="cls-8" d="m711.36,529.4c.43-13.63,6.22-29.23,19.01-30.7,20.64-2.38,23.35,24.04,24.29,25.65,2.94-6.63-3.73-30.27-22.53-30.69-20.24-.45-21.83,22.9-25.15,29.51-12.68.79-41.07.11-56.36.04-7.19-.03-10.72-.25-13.29,5.39,24.6-.61,49.79-.03,74.03.81Z"/>
      <path class="cls-6" d="m535.46,680c-3.82,1.6-5.58,3.04-7.31,6.97-1.74,3.94-1.78,8.14-.59,12.22,1.9,6.5,9.84,12.49,18.89,8.64,15.52-6.6,8.54-35.99-10.98-27.83Z"/>
      <path class="cls-11" d="m412.23,544.95c-30.78-.03-17.45-1.15-27.4,9.53l77.38.12-5.12-9.56-44.86-.09Z"/>
      <path class="cls-11" d="m631.15,554.61l67.32-.02c-.92-2.47-4.61-8.92-6.23-10.75-5.04-.37-11.25.37-15.3,2.32-11.11,5.37-14.82,4.29-24.4-2.27-3.76-2.57-9.9-1.72-15.24-1.86l-6.15,12.57Z"/>
      <path class="cls-8" d="m472.71,489.08c7.45-4.45,11.08-9.81,22.76-11.7,10.2-1.65,18.6.97,25.65,5.5,14.42,9.25,18.34,23.53,20.05,45.91.82-.94.56-.37,1.25-1.87l.91-6.17c.65-17.43-5.9-33.84-20.77-42.75-21.01-12.58-45.82-2.83-49.84,11.09Z"/>
      <path class="cls-8" d="m635.11,433.06c4.08,8.2,4.42,11.98,10.23,12.34-3.02-9.71-18.55-41.57-24.27-49.63l-4.9,1.79c7.01,26.4,4.99,16.63,8.87,41.19.51,3.23.71,3.87,2.18,5.02,2.03-4.56-1.39-23.44.08-26.62,1.55,4.98,5.3,10.88,7.81,15.91Z"/>
      <path class="cls-4" d="m437.54,488.27l16.44-.52c1.65-4.43,3.35-13.18,1.07-18.52-2.27-5.34-10.73-4.42-17.2-4.21l-.31,23.25Z"/>
      <path class="cls-2" d="m325,493.5c7.94,1.78,56.5.69,66.74-.02l-.12-5.01c-7.09-.79-63.23-.42-66.81,1.53l.2,3.49Z"/>
      <path class="cls-9" d="m325.87,472.68c6.25,1.1,59.46.36,66.17-.85l-.61-3.85c-3.75-1.62-43.08-.22-52.88-.14-6.63.06-13.39-2.49-12.67,4.84Z"/>
      <path class="cls-2" d="m325.22,482.87c4.82,1.8,28.16.64,34.99.6,6.07-.04,12.13-.07,18.21-.11,13.91-.1,12.8.79,13.4-4.28-2.46-1.39-4.67-1.06-8.19-1-10.78.2-54.79-.64-58.56,1.52l.16,3.26Z"/>
      <path class="cls-9" d="m327.49,462.38l64.03-.77c-.96-7.11-6.01-5.16-13.11-5.12l-46.79,1.12c-3.78.5-4.36.94-4.13,4.77Z"/>
      <path class="cls-1" d="m499.33,520.69c-9.55,5.79-4.41,29.02,6.61,21.86,6.91-4.49,4.74-28.75-6.61-21.86Z"/>
      <path class="cls-1" d="m730.74,520.46c-2.87,5.38-4.66,7.23-3.76,14.91.62,5.25,3.53,10.81,9.76,8.28,4.11-1.67,5.39-8.98,4.76-14.09-.84-6.79-3.26-9.86-10.76-9.09Z"/>
      <path class="cls-12" d="m403.45,513.03c-.83,1.96.4,4.82.56,7.02,9.32.14,19.8.4,28.3-1.51l1.37-4.85c-4.15-1.83-25.68-.73-30.23-.66Z"/>
      <path class="cls-1" d="m702.48,691.7c6.92-.12,16.85,1.65,16-7.07-.69-7.05-9-5.98-15.89-6.17l-.1,13.24Z"/>
      <path class="cls-1" d="m332.53,707.19c-1.51-2.83-8.55-9.78-11.33-11.46-11.2,5.6-4.88,19.73,11.33,11.46Z"/>
      <polygon class="cls-2" points="653.64 699.85 666.23 699.93 660.31 681.82 653.64 699.85"/>
      <path class="cls-2" d="m388.62,700.02l11.41-.11-5.41-18.26-1.94,4.22c-.58,1.59-1.03,2.95-1.52,4.51-.83,2.63-2.24,6.62-2.54,9.65Z"/>
      <path class="cls-2" d="m323.52,686.31c7.28-.13,9.79-8.67,4.47-10.54-3.49-1.22-6.36.09-7.03,2.76-.87,3.46,1.52,6.19,2.56,7.78Z"/>
      <path class="cls-7" d="m593.87,466.08c2.28,1.87,3.79,1.54,7.79,2.17,4.35.69,4.76,1.44,5.53-2.17l-10.35-1.28c-3.61.41-1.63.32-2.97,1.28Z"/>
    </g>
    <rect class="cls-13" width="1080" height="1080"/>
  </g>
</svg>